<?xml version="1.0" standalone="no"?>
<!DOCTYPE svg PUBLIC "-//W3C//DTD SVG 20010904//EN"
 "http://www.w3.org/TR/2001/REC-SVG-20010904/DTD/svg10.dtd">
<svg version="1.0" xmlns="http://www.w3.org/2000/svg"
 width="986.000000pt" height="986.000000pt" viewBox="0 0 986.000000 986.000000"
 preserveAspectRatio="xMidYMid meet">
<metadata>
Created by potrace 1.11, written by Peter Selinger 2001-2013
</metadata>
<g transform="translate(0.000000,986.000000) scale(0.100000,-0.100000)"
fill="#000000" stroke="none">
<path d="M2076 8838 c-120 -17 -241 -109 -299 -228 -30 -60 -32 -72 -32 -170
0 -104 1 -106 40 -178 61 -112 141 -176 257 -206 78 -19 549 -19 626 1 117 30
213 110 265 222 27 55 32 80 34 148 4 152 -60 274 -182 352 -88 56 -129 63
-409 64 -139 1 -274 -1 -300 -5z"/>
<path d="M4086 8838 c-241 -24 -402 -260 -341 -498 38 -144 165 -262 310 -289
29 -5 832 -9 1880 -9 1955 1 1879 -1 1977 49 63 32 135 111 171 187 29 61 32
75 32 167 0 93 -2 105 -32 165 -53 107 -144 185 -253 217 -49 14 -237 16
-1865 17 -995 1 -1841 -2 -1879 -6z"/>
<path d="M1223 7074 c-254 -65 -378 -331 -265 -566 46 -93 131 -166 238 -203
45 -16 234 -17 2479 -17 2218 0 2435 1 2479 16 74 25 107 45 161 97 223 212
127 587 -171 670 -58 16 -224 17 -2466 17 -1980 -1 -2412 -3 -2455 -14z"/>
<path d="M7705 7073 c-28 -7 -55 -15 -60 -16 -31 -8 -106 -61 -144 -102 -144
-157 -138 -399 13 -550 51 -50 131 -96 194 -110 18 -3 229 -7 470 -7 384 0
443 2 487 17 107 36 193 111 239 210 28 58 47 150 40 192 -2 15 -6 42 -9 58
-3 17 -4 32 -3 35 6 17 -74 139 -118 179 -114 104 -139 109 -644 108 -321 0
-427 -3 -465 -14z"/>
<path d="M290 5311 c-78 -25 -109 -43 -161 -95 -217 -212 -130 -577 159 -666
61 -19 93 -20 666 -20 650 0 660 1 752 55 264 155 263 536 -2 691 -90 53 -101
54 -754 53 -551 0 -610 -2 -660 -18z"/>
<path d="M3380 5319 c-68 -19 -126 -54 -186 -115 -85 -86 -109 -145 -108 -279
0 -89 3 -107 28 -160 51 -106 154 -192 271 -224 29 -8 903 -11 3086 -11 3033
0 3047 0 3105 20 109 38 182 100 234 202 59 113 59 232 1 352 -50 102 -131
173 -238 206 -65 20 -77 20 -3112 19 -1876 0 -3059 -4 -3081 -10z"/>
<path d="M1257 3568 c-78 -10 -157 -50 -220 -111 -229 -223 -115 -605 200
-675 25 -6 993 -9 2465 -8 l2423 2 53 21 c107 44 199 137 238 243 23 63 26
178 7 243 -29 98 -84 171 -173 229 -100 64 88 60 -2544 61 -1315 1 -2417 -1
-2449 -5z"/>
<path d="M7745 3568 c-236 -26 -397 -267 -334 -500 25 -96 86 -177 174 -233
92 -59 127 -63 579 -63 224 1 427 5 453 9 111 21 224 101 276 197 121 222 18
490 -221 574 -52 18 -86 20 -462 21 -223 1 -432 -1 -465 -5z"/>
<path d="M2043 1805 c-128 -29 -238 -132 -282 -262 -31 -93 -25 -207 18 -295
53 -111 157 -195 271 -219 34 -7 156 -12 315 -12 267 0 314 6 391 46 192 100
268 344 169 538 -46 89 -148 175 -239 201 -57 17 -573 19 -643 3z"/>
<path d="M4029 1803 c-216 -55 -345 -287 -280 -500 38 -127 144 -233 270 -270
51 -15 225 -16 1906 -16 1684 0 1855 1 1905 16 259 77 372 380 224 603 -53 80
-145 146 -237 171 -12 4 -857 7 -1878 8 -1550 2 -1864 0 -1910 -12z"/>
</g>
</svg>
