<svg xmlns="http://www.w3.org/2000/svg" viewBox="0 0 984.64 782.32"><defs><style>.cls-1{fill:#1dd1a1;}</style></defs><title>mist logo</title><g id="Layer_2" data-name="Layer 2"><g id="Layer_1-2" data-name="Layer 1"><rect class="cls-1" x="372.47" width="438.85" height="79.71" rx="39.86" ry="39.86"/><rect class="cls-1" x="173.33" width="122.93" height="79.71" rx="39.86" ry="39.86"/><rect class="cls-1" x="307.35" y="351.3" width="677.3" height="79.71" rx="39.86" ry="39.86"/><rect class="cls-1" y="351.3" width="189.72" height="79.71" rx="39.86" ry="39.86"/><rect class="cls-1" x="90.97" y="175.65" width="552.15" height="79.71" rx="39.86" ry="39.86" transform="translate(734.09 431.01) rotate(-180)"/><rect class="cls-1" x="739.01" y="175.65" width="154.67" height="79.71" rx="39.86" ry="39.86" transform="translate(1632.69 431.01) rotate(-180)"/><rect class="cls-1" x="372.47" y="702.61" width="438.85" height="79.71" rx="39.86" ry="39.86"/><rect class="cls-1" x="173.33" y="702.61" width="122.93" height="79.71" rx="39.86" ry="39.86"/><rect class="cls-1" x="90.97" y="526.96" width="552.15" height="79.71" rx="39.86" ry="39.86" transform="translate(734.09 1133.62) rotate(180)"/><rect class="cls-1" x="739.01" y="526.96" width="154.67" height="79.71" rx="39.86" ry="39.86" transform="translate(1632.69 1133.62) rotate(180)"/></g></g></svg>