<svg xmlns="http://www.w3.org/2000/svg" viewBox="0 0 1328.46 409.53"><defs><style>.cls-1{fill:#1dd1a1;}.cls-2{font-size:343.78px;fill:#222f3e;font-family:RobotoSlab-Thin, Roboto Slab;}</style></defs><title>wordmark</title><g id="Layer_2" data-name="Layer 2"><g id="Layer_1-2" data-name="Layer 1"><rect class="cls-1" x="186.83" width="220.13" height="39.98" rx="19.99" ry="19.99"/><rect class="cls-1" x="86.94" width="61.66" height="39.98" rx="19.99" ry="19.99"/><rect class="cls-1" x="154.16" y="176.21" width="339.73" height="39.98" rx="19.99" ry="19.99"/><rect class="cls-1" y="176.21" width="95.16" height="39.98" rx="19.99" ry="19.99"/><rect class="cls-1" x="45.63" y="88.11" width="276.96" height="39.98" rx="19.99" ry="19.99" transform="translate(368.22 216.2) rotate(180)"/><rect class="cls-1" x="370.69" y="88.11" width="77.58" height="39.98" rx="19.99" ry="19.99" transform="translate(818.96 216.2) rotate(-180)"/><rect class="cls-1" x="186.83" y="352.43" width="220.13" height="39.98" rx="19.99" ry="19.99"/><rect class="cls-1" x="86.94" y="352.43" width="61.66" height="39.98" rx="19.99" ry="19.99"/><rect class="cls-1" x="45.63" y="264.32" width="276.96" height="39.98" rx="19.99" ry="19.99" transform="translate(368.22 568.63) rotate(180)"/><rect class="cls-1" x="370.69" y="264.32" width="77.58" height="39.98" rx="19.99" ry="19.99" transform="translate(818.96 568.63) rotate(180)"/><text class="cls-2" transform="translate(533.3 316.37)">Myst</text></g></g></svg>